<mxfile host="app.diagrams.net" modified="2024-06-24T08:41:08.662Z" agent="Mozilla/5.0 (Windows NT 10.0; Win64; x64; rv:127.0) Gecko/20100101 Firefox/127.0" etag="OWdrqVAuswChal1OfS8s" version="24.2.5" type="github">
  <diagram name="Page-1" id="2YBvvXClWsGukQMizWep">
    <mxGraphModel dx="1542" dy="940" grid="1" gridSize="10" guides="1" tooltips="1" connect="1" arrows="1" fold="1" page="1" pageScale="1" pageWidth="1654" pageHeight="1169" math="0" shadow="0">
      <root>
        <mxCell id="0" />
        <mxCell id="1" parent="0" />
        <mxCell id="w2w6zZP2qAKeKWlAymID-77" value="" style="group" vertex="1" connectable="0" parent="1">
          <mxGeometry x="39.93" y="24" width="1450.07" height="776" as="geometry" />
        </mxCell>
        <mxCell id="w2w6zZP2qAKeKWlAymID-10" value="[brand == NULL &amp;amp;&amp;amp; model != NULL]" style="text;html=1;align=center;verticalAlign=middle;whiteSpace=wrap;rounded=0;container=0;" vertex="1" parent="w2w6zZP2qAKeKWlAymID-77">
          <mxGeometry x="181.95145859872602" y="121.75732217573226" width="203.19452229299355" height="24.35146443514645" as="geometry" />
        </mxCell>
        <mxCell id="w2w6zZP2qAKeKWlAymID-16" value="" style="endArrow=none;dashed=1;html=1;rounded=0;exitX=0.002;exitY=0.445;exitDx=0;exitDy=0;exitPerimeter=0;entryX=1.002;entryY=0.44;entryDx=0;entryDy=0;entryPerimeter=0;dashPattern=8 8;" edge="1" parent="w2w6zZP2qAKeKWlAymID-77">
          <mxGeometry width="50" height="50" relative="1" as="geometry">
            <mxPoint x="149.69894624203812" y="236.98033472803357" as="sourcePoint" />
            <mxPoint x="1110.2548698089163" y="234.91046025104615" as="targetPoint" />
          </mxGeometry>
        </mxCell>
        <mxCell id="w2w6zZP2qAKeKWlAymID-17" value="[brand == NULL &amp;amp;&amp;amp; isChassisSet(...)]" style="text;html=1;align=center;verticalAlign=middle;whiteSpace=wrap;rounded=0;container=0;" vertex="1" parent="w2w6zZP2qAKeKWlAymID-77">
          <mxGeometry x="181.95145859872602" y="251.63179916318" width="203.19452229299355" height="24.35146443514645" as="geometry" />
        </mxCell>
        <mxCell id="w2w6zZP2qAKeKWlAymID-18" value="" style="rounded=0;whiteSpace=wrap;html=1;container=0;" vertex="1" parent="w2w6zZP2qAKeKWlAymID-77">
          <mxGeometry x="600.347452229299" y="292.2175732217574" width="9.236114649681522" height="162.34309623430966" as="geometry" />
        </mxCell>
        <mxCell id="w2w6zZP2qAKeKWlAymID-21" value="" style="endArrow=open;html=1;rounded=0;exitX=0;exitY=1;exitDx=0;exitDy=0;endFill=0;dashed=1;dashPattern=12 12;edgeStyle=elbowEdgeStyle;elbow=vertical;" edge="1" parent="w2w6zZP2qAKeKWlAymID-77" source="w2w6zZP2qAKeKWlAymID-18" target="aM9ryv3xv72pqoxQDRHE-2">
          <mxGeometry width="50" height="50" relative="1" as="geometry">
            <mxPoint x="397.15292993630544" y="219.16317991631806" as="sourcePoint" />
            <mxPoint x="198.57646496815275" y="219.16317991631806" as="targetPoint" />
          </mxGeometry>
        </mxCell>
        <mxCell id="w2w6zZP2qAKeKWlAymID-23" value="" style="group;container=0;" vertex="1" connectable="0" parent="w2w6zZP2qAKeKWlAymID-77">
          <mxGeometry x="387.91681528662406" y="170.46025104602518" width="9.236114649681522" height="40.585774058577414" as="geometry" />
        </mxCell>
        <mxCell id="w2w6zZP2qAKeKWlAymID-24" value="" style="group;container=0;" vertex="1" connectable="0" parent="w2w6zZP2qAKeKWlAymID-77">
          <mxGeometry x="397.15292993630544" y="178.57740585774064" width="9.236114649681522" height="40.585774058577414" as="geometry" />
        </mxCell>
        <mxCell id="w2w6zZP2qAKeKWlAymID-11" value="" style="rounded=0;whiteSpace=wrap;html=1;container=0;" vertex="1" parent="w2w6zZP2qAKeKWlAymID-77">
          <mxGeometry x="387.91681528662406" y="170.46025104602518" width="9.236114649681522" height="40.585774058577414" as="geometry" />
        </mxCell>
        <mxCell id="w2w6zZP2qAKeKWlAymID-12" value="" style="endArrow=block;html=1;rounded=0;endFill=1;" edge="1" parent="w2w6zZP2qAKeKWlAymID-77" source="aM9ryv3xv72pqoxQDRHE-2">
          <mxGeometry width="50" height="50" relative="1" as="geometry">
            <mxPoint x="683.4724840764326" y="316.56903765690384" as="sourcePoint" />
            <mxPoint x="387.91681528662406" y="170.46025104602518" as="targetPoint" />
          </mxGeometry>
        </mxCell>
        <mxCell id="w2w6zZP2qAKeKWlAymID-13" value="common/{model}/brand [GET]" style="edgeLabel;html=1;align=center;verticalAlign=middle;resizable=0;points=[];container=0;" vertex="1" connectable="0" parent="w2w6zZP2qAKeKWlAymID-12">
          <mxGeometry x="-0.0156" relative="1" as="geometry">
            <mxPoint y="-10" as="offset" />
          </mxGeometry>
        </mxCell>
        <mxCell id="w2w6zZP2qAKeKWlAymID-14" value="" style="endArrow=open;html=1;rounded=0;exitX=0;exitY=1;exitDx=0;exitDy=0;endFill=0;dashed=1;dashPattern=12 12;" edge="1" parent="w2w6zZP2qAKeKWlAymID-77" source="w2w6zZP2qAKeKWlAymID-11" target="aM9ryv3xv72pqoxQDRHE-2">
          <mxGeometry width="50" height="50" relative="1" as="geometry">
            <mxPoint x="230.9028662420381" y="186.69456066945614" as="sourcePoint" />
            <mxPoint x="277.0834394904457" y="146.1087866108787" as="targetPoint" />
          </mxGeometry>
        </mxCell>
        <mxCell id="w2w6zZP2qAKeKWlAymID-39" value="" style="rounded=0;whiteSpace=wrap;html=1;container=0;" vertex="1" parent="w2w6zZP2qAKeKWlAymID-77">
          <mxGeometry x="803.5419745222924" y="316.56903765690384" width="9.236114649681522" height="40.585774058577414" as="geometry" />
        </mxCell>
        <mxCell id="w2w6zZP2qAKeKWlAymID-40" value="" style="rounded=0;whiteSpace=wrap;html=1;container=0;" vertex="1" parent="w2w6zZP2qAKeKWlAymID-77">
          <mxGeometry x="997.5003821656047" y="384.753138075314" width="9.236114649681522" height="40.585774058577414" as="geometry" />
        </mxCell>
        <mxCell id="w2w6zZP2qAKeKWlAymID-41" value="" style="endArrow=block;html=1;rounded=0;endFill=1;entryX=0;entryY=0;entryDx=0;entryDy=0;edgeStyle=elbowEdgeStyle;elbow=vertical;" edge="1" parent="w2w6zZP2qAKeKWlAymID-77" source="aM9ryv3xv72pqoxQDRHE-2" target="w2w6zZP2qAKeKWlAymID-18">
          <mxGeometry width="50" height="50" relative="1" as="geometry">
            <mxPoint x="198.57646496815275" y="178.57740585774064" as="sourcePoint" />
            <mxPoint x="397.15292993630544" y="178.57740585774064" as="targetPoint" />
          </mxGeometry>
        </mxCell>
        <mxCell id="w2w6zZP2qAKeKWlAymID-42" value="[GET]" style="edgeLabel;html=1;align=center;verticalAlign=middle;resizable=0;points=[];container=0;" vertex="1" connectable="0" parent="w2w6zZP2qAKeKWlAymID-41">
          <mxGeometry x="-0.0156" relative="1" as="geometry">
            <mxPoint y="-10" as="offset" />
          </mxGeometry>
        </mxCell>
        <mxCell id="w2w6zZP2qAKeKWlAymID-43" value="" style="endArrow=block;html=1;rounded=0;endFill=1;entryX=0;entryY=0;entryDx=0;entryDy=0;exitX=0.962;exitY=0.142;exitDx=0;exitDy=0;exitPerimeter=0;edgeStyle=elbowEdgeStyle;elbow=vertical;" edge="1" parent="w2w6zZP2qAKeKWlAymID-77" source="w2w6zZP2qAKeKWlAymID-18" target="w2w6zZP2qAKeKWlAymID-39">
          <mxGeometry width="50" height="50" relative="1" as="geometry">
            <mxPoint x="198.57646496815275" y="300.33472803347286" as="sourcePoint" />
            <mxPoint x="609.5835668789805" y="300.33472803347286" as="targetPoint" />
          </mxGeometry>
        </mxCell>
        <mxCell id="w2w6zZP2qAKeKWlAymID-44" value="/users/users/{userId} [GET]" style="edgeLabel;html=1;align=center;verticalAlign=middle;resizable=0;points=[];container=0;" vertex="1" connectable="0" parent="w2w6zZP2qAKeKWlAymID-43">
          <mxGeometry x="-0.0156" relative="1" as="geometry">
            <mxPoint y="-10" as="offset" />
          </mxGeometry>
        </mxCell>
        <mxCell id="w2w6zZP2qAKeKWlAymID-45" value="" style="endArrow=open;html=1;rounded=0;exitX=0;exitY=1;exitDx=0;exitDy=0;endFill=0;dashed=1;dashPattern=12 12;edgeStyle=elbowEdgeStyle;elbow=vertical;" edge="1" parent="w2w6zZP2qAKeKWlAymID-77" source="w2w6zZP2qAKeKWlAymID-39">
          <mxGeometry width="50" height="50" relative="1" as="geometry">
            <mxPoint x="1233.0213057324834" y="251.63179916318" as="sourcePoint" />
            <mxPoint x="608.6599554140124" y="357.1548117154813" as="targetPoint" />
            <Array as="points">
              <mxPoint x="711.1808280254776" y="357.1548117154813" />
            </Array>
          </mxGeometry>
        </mxCell>
        <mxCell id="w2w6zZP2qAKeKWlAymID-47" value="" style="endArrow=block;html=1;rounded=0;endFill=1;entryX=0;entryY=0;entryDx=0;entryDy=0;exitX=1.438;exitY=0.575;exitDx=0;exitDy=0;exitPerimeter=0;edgeStyle=elbowEdgeStyle;elbow=vertical;" edge="1" parent="w2w6zZP2qAKeKWlAymID-77" source="w2w6zZP2qAKeKWlAymID-18" target="w2w6zZP2qAKeKWlAymID-40">
          <mxGeometry width="50" height="50" relative="1" as="geometry">
            <mxPoint x="618.8196815286622" y="323.06276150627616" as="sourcePoint" />
            <mxPoint x="812.7780891719742" y="324.6861924686193" as="targetPoint" />
          </mxGeometry>
        </mxCell>
        <mxCell id="w2w6zZP2qAKeKWlAymID-48" value="[GET]" style="edgeLabel;html=1;align=center;verticalAlign=middle;resizable=0;points=[];container=0;" vertex="1" connectable="0" parent="w2w6zZP2qAKeKWlAymID-47">
          <mxGeometry x="-0.0156" relative="1" as="geometry">
            <mxPoint y="-10" as="offset" />
          </mxGeometry>
        </mxCell>
        <mxCell id="w2w6zZP2qAKeKWlAymID-49" value="" style="endArrow=open;html=1;rounded=0;exitX=0;exitY=1;exitDx=0;exitDy=0;endFill=0;dashed=1;dashPattern=12 12;edgeStyle=elbowEdgeStyle;elbow=vertical;entryX=1.057;entryY=0.815;entryDx=0;entryDy=0;entryPerimeter=0;" edge="1" parent="w2w6zZP2qAKeKWlAymID-77" source="w2w6zZP2qAKeKWlAymID-40" target="w2w6zZP2qAKeKWlAymID-18">
          <mxGeometry width="50" height="50" relative="1" as="geometry">
            <mxPoint x="812.7780891719742" y="365.2719665271967" as="sourcePoint" />
            <mxPoint x="617.8960700636941" y="365.2719665271967" as="targetPoint" />
            <Array as="points" />
          </mxGeometry>
        </mxCell>
        <mxCell id="aM9ryv3xv72pqoxQDRHE-1" value=":specialtools-gateway" style="shape=umlLifeline;perimeter=lifelinePerimeter;whiteSpace=wrap;html=1;container=0;dropTarget=0;collapsible=0;recursiveResize=0;outlineConnect=0;portConstraint=eastwest;newEdgeStyle={&quot;edgeStyle&quot;:&quot;elbowEdgeStyle&quot;,&quot;elbow&quot;:&quot;vertical&quot;,&quot;curved&quot;:0,&quot;rounded&quot;:0};" parent="w2w6zZP2qAKeKWlAymID-77" vertex="1">
          <mxGeometry x="110.8333757961783" width="129.30560509554135" height="776.0000000000001" as="geometry" />
        </mxCell>
        <mxCell id="aM9ryv3xv72pqoxQDRHE-5" value=":specialtools-service" style="shape=umlLifeline;perimeter=lifelinePerimeter;whiteSpace=wrap;html=1;container=0;dropTarget=0;collapsible=0;recursiveResize=0;outlineConnect=0;portConstraint=eastwest;newEdgeStyle={&quot;edgeStyle&quot;:&quot;elbowEdgeStyle&quot;,&quot;elbow&quot;:&quot;vertical&quot;,&quot;curved&quot;:0,&quot;rounded&quot;:0};" parent="w2w6zZP2qAKeKWlAymID-77" vertex="1">
          <mxGeometry x="314.02789808917186" width="138.54171974522288" height="776" as="geometry" />
        </mxCell>
        <mxCell id="w2w6zZP2qAKeKWlAymID-4" value=":vehicle-identification" style="shape=umlLifeline;perimeter=lifelinePerimeter;whiteSpace=wrap;html=1;container=0;dropTarget=0;collapsible=0;recursiveResize=0;outlineConnect=0;portConstraint=eastwest;newEdgeStyle={&quot;edgeStyle&quot;:&quot;elbowEdgeStyle&quot;,&quot;elbow&quot;:&quot;vertical&quot;,&quot;curved&quot;:0,&quot;rounded&quot;:0};" vertex="1" parent="w2w6zZP2qAKeKWlAymID-77">
          <mxGeometry x="526.4585350318468" width="138.54171974522288" height="776" as="geometry" />
        </mxCell>
        <mxCell id="w2w6zZP2qAKeKWlAymID-5" value=":users (Python)" style="shape=umlLifeline;perimeter=lifelinePerimeter;whiteSpace=wrap;html=1;container=0;dropTarget=0;collapsible=0;recursiveResize=0;outlineConnect=0;portConstraint=eastwest;newEdgeStyle={&quot;edgeStyle&quot;:&quot;elbowEdgeStyle&quot;,&quot;elbow&quot;:&quot;vertical&quot;,&quot;curved&quot;:0,&quot;rounded&quot;:0};" vertex="1" parent="w2w6zZP2qAKeKWlAymID-77">
          <mxGeometry x="729.6530573248405" width="138.54171974522288" height="776" as="geometry" />
        </mxCell>
        <mxCell id="w2w6zZP2qAKeKWlAymID-6" value=":vehicles (Python)" style="shape=umlLifeline;perimeter=lifelinePerimeter;whiteSpace=wrap;html=1;container=0;dropTarget=0;collapsible=0;recursiveResize=0;outlineConnect=0;portConstraint=eastwest;newEdgeStyle={&quot;edgeStyle&quot;:&quot;elbowEdgeStyle&quot;,&quot;elbow&quot;:&quot;vertical&quot;,&quot;curved&quot;:0,&quot;rounded&quot;:0};" vertex="1" parent="w2w6zZP2qAKeKWlAymID-77">
          <mxGeometry x="923.6114649681524" width="138.54171974522288" height="776" as="geometry" />
        </mxCell>
        <mxCell id="w2w6zZP2qAKeKWlAymID-7" value=":dealer-tools-service" style="shape=umlLifeline;perimeter=lifelinePerimeter;whiteSpace=wrap;html=1;container=0;dropTarget=0;collapsible=0;recursiveResize=0;outlineConnect=0;portConstraint=eastwest;newEdgeStyle={&quot;edgeStyle&quot;:&quot;elbowEdgeStyle&quot;,&quot;elbow&quot;:&quot;vertical&quot;,&quot;curved&quot;:0,&quot;rounded&quot;:0};" vertex="1" parent="w2w6zZP2qAKeKWlAymID-77">
          <mxGeometry x="1126.805987261146" width="138.54171974522288" height="776" as="geometry" />
        </mxCell>
        <mxCell id="w2w6zZP2qAKeKWlAymID-8" value=":own-tools" style="shape=umlLifeline;perimeter=lifelinePerimeter;whiteSpace=wrap;html=1;container=0;dropTarget=0;collapsible=0;recursiveResize=0;outlineConnect=0;portConstraint=eastwest;newEdgeStyle={&quot;edgeStyle&quot;:&quot;elbowEdgeStyle&quot;,&quot;elbow&quot;:&quot;vertical&quot;,&quot;curved&quot;:0,&quot;rounded&quot;:0};" vertex="1" parent="w2w6zZP2qAKeKWlAymID-77">
          <mxGeometry x="1311.5282802547767" width="138.54171974522288" height="776" as="geometry" />
        </mxCell>
        <mxCell id="w2w6zZP2qAKeKWlAymID-52" value="" style="rounded=0;whiteSpace=wrap;html=1;container=0;" vertex="1" parent="w2w6zZP2qAKeKWlAymID-77">
          <mxGeometry x="795.2294713375793" y="496.6605064963665" width="9.236114649681522" height="40.842105263157904" as="geometry" />
        </mxCell>
        <mxCell id="w2w6zZP2qAKeKWlAymID-53" value="" style="endArrow=block;html=1;rounded=0;endFill=1;entryX=0;entryY=0;entryDx=0;entryDy=0;edgeStyle=elbowEdgeStyle;elbow=vertical;" edge="1" target="w2w6zZP2qAKeKWlAymID-52" parent="w2w6zZP2qAKeKWlAymID-77" source="aM9ryv3xv72pqoxQDRHE-2">
          <mxGeometry width="50" height="50" relative="1" as="geometry">
            <mxPoint x="601.2710636942672" y="498.2736842105263" as="sourcePoint" />
            <mxPoint x="601.2710636942672" y="483.57052631578955" as="targetPoint" />
          </mxGeometry>
        </mxCell>
        <mxCell id="w2w6zZP2qAKeKWlAymID-54" value="/users/users/{userId} [GET]" style="edgeLabel;html=1;align=center;verticalAlign=middle;resizable=0;points=[];container=0;" vertex="1" connectable="0" parent="w2w6zZP2qAKeKWlAymID-53">
          <mxGeometry x="-0.0156" relative="1" as="geometry">
            <mxPoint y="-10" as="offset" />
          </mxGeometry>
        </mxCell>
        <mxCell id="w2w6zZP2qAKeKWlAymID-55" value="" style="endArrow=open;html=1;rounded=0;exitX=0;exitY=1;exitDx=0;exitDy=0;endFill=0;dashed=1;dashPattern=12 12;edgeStyle=elbowEdgeStyle;elbow=vertical;" edge="1" source="w2w6zZP2qAKeKWlAymID-52" parent="w2w6zZP2qAKeKWlAymID-77" target="aM9ryv3xv72pqoxQDRHE-2">
          <mxGeometry width="50" height="50" relative="1" as="geometry">
            <mxPoint x="1224.70880254777" y="434.56000000000006" as="sourcePoint" />
            <mxPoint x="600.347452229299" y="540.7494736842104" as="targetPoint" />
            <Array as="points" />
          </mxGeometry>
        </mxCell>
        <mxCell id="w2w6zZP2qAKeKWlAymID-57" value="" style="rounded=0;whiteSpace=wrap;html=1;container=0;" vertex="1" parent="w2w6zZP2qAKeKWlAymID-77">
          <mxGeometry x="378.6807006369425" y="568.5404530858847" width="9.236114649681522" height="35.23171247357294" as="geometry" />
        </mxCell>
        <mxCell id="w2w6zZP2qAKeKWlAymID-58" value="" style="endArrow=block;html=1;rounded=0;endFill=1;entryX=0;entryY=0;entryDx=0;entryDy=0;edgeStyle=elbowEdgeStyle;elbow=vertical;" edge="1" parent="w2w6zZP2qAKeKWlAymID-77" target="w2w6zZP2qAKeKWlAymID-57" source="aM9ryv3xv72pqoxQDRHE-2">
          <mxGeometry width="50" height="50" relative="1" as="geometry">
            <mxPoint x="-18.472229299363057" y="579.9578947368423" as="sourcePoint" />
            <mxPoint x="402.69459872611446" y="563.6210526315791" as="targetPoint" />
          </mxGeometry>
        </mxCell>
        <mxCell id="w2w6zZP2qAKeKWlAymID-59" value="special-tools [GET]" style="edgeLabel;html=1;align=center;verticalAlign=middle;resizable=0;points=[];container=0;" vertex="1" connectable="0" parent="w2w6zZP2qAKeKWlAymID-58">
          <mxGeometry x="-0.0156" relative="1" as="geometry">
            <mxPoint y="-10" as="offset" />
          </mxGeometry>
        </mxCell>
        <mxCell id="w2w6zZP2qAKeKWlAymID-60" value="" style="endArrow=open;html=1;rounded=0;exitX=0;exitY=1;exitDx=0;exitDy=0;endFill=0;dashed=1;dashPattern=12 12;edgeStyle=elbowEdgeStyle;elbow=vertical;" edge="1" parent="w2w6zZP2qAKeKWlAymID-77" source="w2w6zZP2qAKeKWlAymID-57" target="aM9ryv3xv72pqoxQDRHE-2">
          <mxGeometry width="50" height="50" relative="1" as="geometry">
            <mxPoint x="1026.1323375796173" y="514.6105263157896" as="sourcePoint" />
            <mxPoint x="-18.472229299363057" y="620.8000000000001" as="targetPoint" />
            <Array as="points" />
          </mxGeometry>
        </mxCell>
        <mxCell id="w2w6zZP2qAKeKWlAymID-62" value="" style="rounded=0;whiteSpace=wrap;html=1;container=0;" vertex="1" parent="w2w6zZP2qAKeKWlAymID-77">
          <mxGeometry x="1191.4587898089167" y="633.42294797739" width="9.236114649681522" height="34.00947145877379" as="geometry" />
        </mxCell>
        <mxCell id="w2w6zZP2qAKeKWlAymID-63" value="" style="endArrow=block;html=1;rounded=0;endFill=1;entryX=0;entryY=0;entryDx=0;entryDy=0;edgeStyle=elbowEdgeStyle;elbow=vertical;" edge="1" parent="w2w6zZP2qAKeKWlAymID-77" target="w2w6zZP2qAKeKWlAymID-62" source="aM9ryv3xv72pqoxQDRHE-2">
          <mxGeometry width="50" height="50" relative="1" as="geometry">
            <mxPoint x="581.8752229299361" y="653.4736842105265" as="sourcePoint" />
            <mxPoint x="1003.0420509554135" y="637.1368421052632" as="targetPoint" />
          </mxGeometry>
        </mxCell>
        <mxCell id="w2w6zZP2qAKeKWlAymID-64" value="api/v1/dealer-tools/{partnerId}/tool-items [GET]" style="edgeLabel;html=1;align=center;verticalAlign=middle;resizable=0;points=[];container=0;" vertex="1" connectable="0" parent="w2w6zZP2qAKeKWlAymID-63">
          <mxGeometry x="-0.0156" relative="1" as="geometry">
            <mxPoint y="-10" as="offset" />
          </mxGeometry>
        </mxCell>
        <mxCell id="w2w6zZP2qAKeKWlAymID-65" value="" style="endArrow=open;html=1;rounded=0;exitX=0;exitY=1;exitDx=0;exitDy=0;endFill=0;dashed=1;dashPattern=12 12;edgeStyle=elbowEdgeStyle;elbow=vertical;" edge="1" parent="w2w6zZP2qAKeKWlAymID-77" source="w2w6zZP2qAKeKWlAymID-62" target="aM9ryv3xv72pqoxQDRHE-2">
          <mxGeometry width="50" height="50" relative="1" as="geometry">
            <mxPoint x="1626.4797898089164" y="588.1263157894738" as="sourcePoint" />
            <mxPoint x="581.8752229299361" y="694.3157894736843" as="targetPoint" />
            <Array as="points" />
          </mxGeometry>
        </mxCell>
        <mxCell id="w2w6zZP2qAKeKWlAymID-68" value="" style="rounded=0;whiteSpace=wrap;html=1;container=0;" vertex="1" parent="w2w6zZP2qAKeKWlAymID-77">
          <mxGeometry x="1376.1810828025473" y="707.2495864551913" width="9.236114649681522" height="29.637293868921784" as="geometry" />
        </mxCell>
        <mxCell id="w2w6zZP2qAKeKWlAymID-69" value="" style="endArrow=block;html=1;rounded=0;endFill=1;entryX=0;entryY=0;entryDx=0;entryDy=0;edgeStyle=elbowEdgeStyle;elbow=vertical;" edge="1" parent="w2w6zZP2qAKeKWlAymID-77" target="w2w6zZP2qAKeKWlAymID-68" source="aM9ryv3xv72pqoxQDRHE-2">
          <mxGeometry width="50" height="50" relative="1" as="geometry">
            <mxPoint x="184.72229299363048" y="710.6526315789474" as="sourcePoint" />
            <mxPoint x="1187.764343949044" y="702.484210526316" as="targetPoint" />
          </mxGeometry>
        </mxCell>
        <mxCell id="w2w6zZP2qAKeKWlAymID-70" value="dealer-own-tools/{partnerId} [GET]" style="edgeLabel;html=1;align=center;verticalAlign=middle;resizable=0;points=[];container=0;" vertex="1" connectable="0" parent="w2w6zZP2qAKeKWlAymID-69">
          <mxGeometry x="-0.0156" relative="1" as="geometry">
            <mxPoint y="-10" as="offset" />
          </mxGeometry>
        </mxCell>
        <mxCell id="w2w6zZP2qAKeKWlAymID-71" value="" style="endArrow=open;html=1;rounded=0;exitX=0;exitY=1;exitDx=0;exitDy=0;endFill=0;dashed=1;dashPattern=12 12;edgeStyle=elbowEdgeStyle;elbow=vertical;" edge="1" parent="w2w6zZP2qAKeKWlAymID-77" source="w2w6zZP2qAKeKWlAymID-68" target="aM9ryv3xv72pqoxQDRHE-2">
          <mxGeometry width="50" height="50" relative="1" as="geometry">
            <mxPoint x="1811.202082802547" y="653.4736842105265" as="sourcePoint" />
            <mxPoint x="766.5975159235667" y="759.6631578947371" as="targetPoint" />
            <Array as="points" />
          </mxGeometry>
        </mxCell>
        <mxCell id="w2w6zZP2qAKeKWlAymID-74" value="" style="endArrow=open;html=1;rounded=0;endFill=0;edgeStyle=elbowEdgeStyle;elbow=horizontal;dashed=1;dashPattern=8 8;" edge="1" parent="w2w6zZP2qAKeKWlAymID-77">
          <mxGeometry width="50" height="50" relative="1" as="geometry">
            <mxPoint x="170.8681210191084" y="759.7991543340382" as="sourcePoint" />
            <mxPoint x="9.23611464968152" y="759.5940803382666" as="targetPoint" />
          </mxGeometry>
        </mxCell>
        <mxCell id="aM9ryv3xv72pqoxQDRHE-2" value="" style="html=1;points=[];perimeter=orthogonalPerimeter;outlineConnect=0;targetShapes=umlLifeline;portConstraint=eastwest;newEdgeStyle={&quot;edgeStyle&quot;:&quot;elbowEdgeStyle&quot;,&quot;elbow&quot;:&quot;vertical&quot;,&quot;curved&quot;:0,&quot;rounded&quot;:0};container=0;" parent="w2w6zZP2qAKeKWlAymID-77" vertex="1">
          <mxGeometry x="170.86812101910817" y="70.54248421052634" width="9.236114649681522" height="689.1206736842107" as="geometry" />
        </mxCell>
        <mxCell id="aM9ryv3xv72pqoxQDRHE-3" value="/special-tools/search [POST]" style="html=1;verticalAlign=bottom;startArrow=oval;endArrow=block;startSize=8;edgeStyle=elbowEdgeStyle;elbow=vertical;curved=0;rounded=0;" parent="w2w6zZP2qAKeKWlAymID-77" target="aM9ryv3xv72pqoxQDRHE-2" edge="1">
          <mxGeometry relative="1" as="geometry">
            <mxPoint y="78.74841437632138" as="sourcePoint" />
            <mxPoint x="166.25006369426745" y="79.36363636363639" as="targetPoint" />
          </mxGeometry>
        </mxCell>
        <mxCell id="w2w6zZP2qAKeKWlAymID-3" value="alt" style="shape=umlFrame;whiteSpace=wrap;html=1;pointerEvents=0;container=0;" vertex="1" parent="w2w6zZP2qAKeKWlAymID-77">
          <mxGeometry x="147.77783439490437" y="89.28870292887032" width="960.5559235668784" height="381.50627615062774" as="geometry" />
        </mxCell>
      </root>
    </mxGraphModel>
  </diagram>
</mxfile>
